<?xml version="1.0" encoding="UTF-8" standalone="no"?>
<svg
   xmlns:dc="http://purl.org/dc/elements/1.1/"
   xmlns:cc="http://creativecommons.org/ns#"
   xmlns:rdf="http://www.w3.org/1999/02/22-rdf-syntax-ns#"
   xmlns:svg="http://www.w3.org/2000/svg"
   xmlns="http://www.w3.org/2000/svg"
   width="512"
   height="101.89152"
   viewBox="0 0 135.46496 26.958458"
   version="1.1"
   id="svg8">
  <title
     id="title878">Logo Azisten</title>
  <defs
     id="defs2" />
  <metadata
     id="metadata5">
    <rdf:RDF>
      <cc:Work
         rdf:about="">
        <dc:format>image/svg+xml</dc:format>
        <dc:type
           rdf:resource="http://purl.org/dc/dcmitype/StillImage" />
        <dc:title>Logo Azisten</dc:title>
        <dc:date />
        <dc:creator>
          <cc:Agent>
            <dc:title>Bobby Ardian</dc:title>
          </cc:Agent>
        </dc:creator>
        <dc:rights>
          <cc:Agent>
            <dc:title>Azisten</dc:title>
          </cc:Agent>
        </dc:rights>
        <dc:publisher>
          <cc:Agent>
            <dc:title>Azisten</dc:title>
          </cc:Agent>
        </dc:publisher>
        <dc:identifier />
        <dc:language>Indonesia</dc:language>
        <dc:subject>
          <rdf:Bag>
            <rdf:li>Logo Azisten</rdf:li>
            <rdf:li>Azisten Logo</rdf:li>
          </rdf:Bag>
        </dc:subject>
        <dc:description>Logo Azisten Pertama</dc:description>
        <dc:contributor>
          <cc:Agent>
            <dc:title>Muhammad Aryo Muzakki</dc:title>
          </cc:Agent>
        </dc:contributor>
      </cc:Work>
    </rdf:RDF>
  </metadata>
  <g
     id="layer1"
     transform="translate(-91.609614,-30.907945)">
    <g
       transform="matrix(0.62286957,0,0,0.62286957,72.061348,-54.623935)"
       id="g1072"
       style="fill:#3fbb56;fill-opacity:1">
      <path
         style="font-style:normal;font-variant:normal;font-weight:normal;font-stretch:normal;font-size:54.6045px;line-height:1.2;font-family:'Colonna MT';-inkscape-font-specification:'Colonna MT';text-align:end;text-anchor:end;fill:#3fbb56;fill-opacity:1;stroke:none;stroke-width:0.264583;stroke-miterlimit:4;stroke-dasharray:none"
         d="M 91.294751,152.17808 70.631427,180.2802 H 68.018516 L 87.32206,154.12443 h -9.331824 q -4.372626,0 -6.185666,0.98651 -1.839702,1.01316 -2.799547,3.97269 h -0.613234 q 0.02666,-1.25313 0.45326,-4.21266 0.213299,-1.43976 0.213299,-2.02633 0,-0.08 -0.05333,-0.98651 2.692898,0.31995 7.305485,0.31995 z"
         id="path1010" />
      <path
         id="path1012"
         style="font-style:normal;font-variant:normal;font-weight:normal;font-stretch:normal;font-size:54.6045px;line-height:1.2;font-family:'Colonna MT';-inkscape-font-specification:'Colonna MT';text-align:end;text-anchor:end;fill:#3fbb56;fill-opacity:1;stroke:none;stroke-width:0.264583;stroke-miterlimit:4;stroke-dasharray:none"
         d="m 107.4788,180.2802 v -28.10212 q 3.30613,0 5.86572,-0.31995 v 0.47992 q -1.57308,0.29329 -2.61291,1.70639 -1.0665,1.46643 -1.0665,6.05236 v 12.71794 q 0,4.106 1.11982,5.51911 1.11982,1.4131 2.55959,1.78637 v 0.47993 q -2.50626,-0.31995 -5.86572,-0.31995 z m -1.99968,-28.10212 v 28.10212 q -1.91969,0 -5.839053,0.31995 v -0.47993 q 2.053003,-0.53324 2.852873,-2.31962 0.79987,-1.75972 0.79987,-6.3723 v -11.91808 q 0,-3.4661 -0.82653,-5.09251 -0.82654,-1.59974 -2.826213,-2.07966 v -0.47992 q 3.252813,0.26662 5.839053,0.31995 z" />
      <path
         style="font-style:normal;font-variant:normal;font-weight:normal;font-stretch:normal;font-size:54.6045px;line-height:1.2;font-family:'Colonna MT';-inkscape-font-specification:'Colonna MT';text-align:end;text-anchor:end;fill:#3fbb56;fill-opacity:1;stroke:none;stroke-width:0.264583;stroke-miterlimit:4;stroke-dasharray:none"
         d="m 121.68984,152.17808 20.66332,28.10212 h 2.61291 l -19.30354,-26.15577 h 9.33182 q 4.37263,0 6.18567,0.98651 1.8397,1.01316 2.79955,3.97269 h 0.61323 q -0.0267,-1.25313 -0.45326,-4.21266 -0.2133,-1.43976 -0.2133,-2.02633 0,-0.08 0.0533,-0.98651 -2.6929,0.31995 -7.30549,0.31995 z"
         id="path1014" />
      <path
         id="path1016"
         style="font-style:normal;font-variant:normal;font-weight:normal;font-stretch:normal;font-size:54.6045px;line-height:1.2;font-family:'Colonna MT';-inkscape-font-specification:'Colonna MT';text-align:end;text-anchor:end;fill:#3fbb56;fill-opacity:1;stroke:none;stroke-width:0.264583;stroke-miterlimit:4;stroke-dasharray:none"
         d="m 57.110476,166.04514 -3.436441,-7.12144 c -0.0711,-0.2133 -0.150901,-0.40019 -0.239776,-0.56017 -0.08887,-0.2844 -0.488915,-1.18196 -1.19991,-2.69282 -0.639897,-1.40422 -1.137416,-2.56848 -1.492914,-3.49277 h -2.613243 l 6.643953,13.8672 z" />
      <path
         id="path1018"
         style="font-style:normal;font-variant:normal;font-weight:normal;font-stretch:normal;font-size:54.6045px;line-height:1.2;font-family:'Colonna MT';-inkscape-font-specification:'Colonna MT';text-align:end;text-anchor:end;fill:#3fbb56;fill-opacity:1;stroke:none;stroke-width:1.00001;stroke-miterlimit:4;stroke-dasharray:none"
         d="m 354.42773,575.16797 -38.63867,52.41211 -39.66211,53.80273 h 56.9375 c 7.45716,0 15.71955,0.4028 24.78907,1.20899 0.26872,-2.75446 1.51152,-7.65882 3.72851,-14.71289 2.35143,-7.45716 3.59422,-12.66316 3.72852,-15.61914 h -2.31836 c -2.82162,6.31506 -6.81725,11.48668 -11.99024,15.51757 -5.37452,4.16527 -14.41205,6.24805 -27.10937,6.24805 h -32.34766 l 34.13672,-46.44531 38.52148,-52.41211 z"
         transform="scale(0.26458)" />
      <path
         id="path1020"
         style="font-style:normal;font-variant:normal;font-weight:normal;font-stretch:normal;font-size:54.6045px;line-height:1.2;font-family:'Colonna MT';-inkscape-font-specification:'Colonna MT';text-align:end;text-anchor:end;fill:#3fbb56;fill-opacity:1;stroke:none;stroke-width:1.00001;stroke-miterlimit:4;stroke-dasharray:none"
         d="m 440.78906,575.16797 38.52149,52.41211 34.13476,46.44531 h -32.34765 c -12.69731,0 -21.73289,-2.08278 -27.10743,-6.24805 -5.17297,-4.03089 -9.17055,-9.20251 -11.99218,-15.51757 h -2.31641 c 0.1343,2.95598 1.37712,8.16198 3.72852,15.61914 2.21699,7.05407 3.45978,11.95843 3.72851,14.71289 9.06952,-0.80619 17.33191,-1.20899 24.78906,-1.20899 h 56.9375 l -39.66211,-53.80273 -38.63867,-52.41211 z"
         transform="scale(0.26458)" />
      <path
         id="path1022"
         style="font-style:normal;font-variant:normal;font-weight:normal;font-stretch:normal;font-size:54.6045px;line-height:1.2;font-family:'Colonna MT';-inkscape-font-specification:'Colonna MT';text-align:end;text-anchor:end;fill:#3fbb56;fill-opacity:1;stroke:none;stroke-width:0.264583;stroke-miterlimit:4;stroke-dasharray:none"
         d="m 161.31004,166.04514 v -13.8672 h -8.79832 l -2.2665,-0.0801 c -1.40422,-0.0356 -2.57757,-0.11535 -3.51963,-0.23977 0,1.54641 -0.10658,3.27083 -0.31988,5.17274 -0.0711,0.55103 -0.10645,1.0041 -0.10645,1.35959 0,0.26663 0.009,0.51564 0.0264,0.74672 h 0.6134 c 0.47992,-1.97301 1.07543,-3.31507 1.78643,-4.02606 0.711,-0.711 1.92879,-1.06659 3.65296,-1.06659 h 6.79846 v 12.00067 z" />
      <path
         id="path1024"
         style="font-style:normal;font-variant:normal;font-weight:normal;font-stretch:normal;font-size:54.6045px;line-height:1.2;font-family:'Colonna MT';-inkscape-font-specification:'Colonna MT';text-align:end;text-anchor:end;fill:#3fbb56;fill-opacity:1;stroke:none;stroke-width:0.264583;stroke-miterlimit:4;stroke-dasharray:none"
         d="m 165.4963,166.04514 v -12.00067 h 6.05226 c 2.29296,0 3.79461,0.48894 4.50562,1.46656 0.69323,0.95985 1.05792,2.16855 1.09345,3.62609 h 0.63975 c 0.0889,-0.79988 0.13332,-1.59086 0.13332,-2.37295 0,-1.22647 0.0268,-2.2488 0.0801,-3.06644 0.0533,-0.88875 0.0801,-1.50194 0.0801,-1.83966 -1.70639,0.2133 -3.43939,0.31987 -5.1991,0.31987 h -9.59878 v 13.8672 z" />
      <path
         id="path1026"
         style="font-style:normal;font-variant:normal;font-weight:normal;font-stretch:normal;font-size:54.6045px;line-height:1.2;font-family:'Colonna MT';-inkscape-font-specification:'Colonna MT';text-align:end;text-anchor:end;fill:#3fbb56;fill-opacity:1;stroke:none;stroke-width:0.264583;stroke-miterlimit:4;stroke-dasharray:none"
         d="m 186.6658,166.04514 v -13.8672 h -0.87953 c -2.13298,-0.1422 -3.74172,-0.24877 -4.826,-0.31987 v 0.48007 c 0.95985,0.2133 1.78619,0.79971 2.47941,1.75956 0.69322,0.95984 1.04023,2.72871 1.04023,5.30607 v 6.64137 z" />
      <path
         id="path1028"
         style="font-style:normal;font-variant:normal;font-weight:normal;font-stretch:normal;font-size:54.6045px;line-height:1.2;font-family:'Colonna MT';-inkscape-font-specification:'Colonna MT';text-align:end;text-anchor:end;fill:#3fbb56;fill-opacity:1;stroke:none;stroke-width:0.264583;stroke-miterlimit:4;stroke-dasharray:none"
         d="m 202.98294,166.04514 c -0.003,-0.13536 -0.0264,-0.35981 -0.0264,-0.48265 0,-1.17315 0.0712,-2.55965 0.21343,-4.15939 h -0.58652 c -0.4266,1.40422 -0.99534,2.2932 -1.70634,2.66647 -0.71099,0.37328 -2.15104,0.55965 -4.31958,0.55965 h -5.75875 v -4.34593 l 0.0532,-1.81279 c 0.0533,-2.27519 0.2397,-3.71523 0.55965,-4.31958 0.5688,-0.0889 1.19108,-0.13332 1.86653,-0.13332 h 4.23948 c 2.25741,0 3.79493,0.21366 4.61258,0.64026 0.81765,0.44437 1.54651,1.43083 2.1864,2.95947 h 0.4532 v -0.66661 c 0,-0.0711 -0.0268,-0.54236 -0.0801,-1.41334 -0.0889,-1.29756 -0.13332,-2.1239 -0.13332,-2.4794 0,-0.26662 0.0177,-0.66667 0.0532,-1.19991 -4.05268,0.2133 -6.80748,0.31987 -8.26502,0.31987 h -7.75912 v 13.8672 z" />
      <path
         id="path1030"
         style="font-style:normal;font-variant:normal;font-weight:normal;font-stretch:normal;font-size:54.6045px;line-height:1.2;font-family:'Colonna MT';-inkscape-font-specification:'Colonna MT';text-align:end;text-anchor:end;fill:#3fbb56;fill-opacity:1;stroke:none;stroke-width:0.264583;stroke-miterlimit:4;stroke-dasharray:none"
         d="m 230.20316,166.04514 -16.23498,-13.8672 -4.77278,-0.31987 v 0.48007 c 1.83082,0.60434 4.07953,2.04387 6.74576,4.31906 l 1.91976,1.62675 0.015,7.76119 h 2.11819 v -6.00163 l 7.05219,6.00163 z" />
      <path
         id="path1032"
         style="font-style:normal;font-variant:normal;font-weight:normal;font-stretch:normal;font-size:54.6045px;line-height:1.2;font-family:'Colonna MT';-inkscape-font-specification:'Colonna MT';text-align:end;text-anchor:end;fill:#3fbb56;fill-opacity:1;stroke:none;stroke-width:0.264583;stroke-miterlimit:4;stroke-dasharray:none"
         d="m 236.4151,166.04514 -16.28769,-13.8672 h -3.14653 l 16.26185,13.8672 z" />
      <path
         id="path1034"
         style="font-style:normal;font-variant:normal;font-weight:normal;font-stretch:normal;font-size:54.6045px;line-height:1.2;font-family:'Colonna MT';-inkscape-font-specification:'Colonna MT';text-align:end;text-anchor:end;fill:#3fbb56;fill-opacity:1;stroke:none;stroke-width:0.264583;stroke-miterlimit:4;stroke-dasharray:none"
         d="m 244.68323,166.04514 v -6.50805 c 0,-1.63529 0.12425,-2.90664 0.3731,-3.81316 0.24885,-0.88874 0.71101,-1.63528 1.38646,-2.23962 0.69323,-0.6399 1.5024,-1.02175 2.42669,-1.14617 v -0.48007 c -2.87953,0.2133 -4.70142,0.31987 -5.46574,0.31987 -0.83543,0 -2.4174,-0.0798 -4.74591,-0.23977 -0.60432,-0.0533 -0.91546,-0.0801 -0.93326,-0.0801 v 0.48007 c 1.19092,0.19552 2.16828,0.60414 2.9326,1.22626 0.76432,0.6399 1.27093,1.43088 1.51978,2.37295 0.24885,0.9954 0.3731,2.41776 0.3731,4.26636 v 5.84143 z" />
      <g
         id="g1054"
         style="fill:#3fbb56;fill-opacity:1"
         transform="translate(-4.034893)">
        <path
           transform="scale(0.26458)"
           d="m 231.10352,627.58008 h -8.8379 l 25.7793,53.80273 c 4.29962,0 11.0176,0.4028 20.1543,1.20899 v -1.81446 c -9.33824,-3.62778 -18.13901,-13.97298 -26.40234,-31.03711 z"
           style="font-style:normal;font-variant:normal;font-weight:normal;font-stretch:normal;font-size:54.6045px;line-height:1.2;font-family:'Colonna MT';-inkscape-font-specification:'Colonna MT';text-align:end;text-anchor:end;fill:#3fbb56;fill-opacity:1;stroke:none;stroke-width:1.00001;stroke-miterlimit:4;stroke-dasharray:none"
           id="path1036" />
        <path
           transform="scale(0.26458)"
           d="m 624.93359,627.58008 h -8.0625 v 23.4707 c 0,9.87568 -1.00603,16.92967 -3.02148,21.16211 -2.08265,4.29962 -5.91222,7.15364 -11.48828,8.56445 v 1.81446 c 8.66641,-0.80619 15.18203,-1.20899 19.54883,-1.20899 h 3.02343 z"
           style="font-style:normal;font-variant:normal;font-weight:normal;font-stretch:normal;font-size:54.6045px;line-height:1.2;font-family:'Colonna MT';-inkscape-font-specification:'Colonna MT';text-align:end;text-anchor:end;fill:#3fbb56;fill-opacity:1;stroke:none;stroke-width:1.00001;stroke-miterlimit:4;stroke-dasharray:none"
           id="path1038" />
        <path
           transform="scale(0.26458)"
           d="m 640.75586,627.58008 h -8.36524 v 53.80273 h 2.6211 c 1.54516,0 8.26315,0.4028 20.1543,1.20899 v -1.81446 c -4.90426,-1.00771 -8.53342,-3.59449 -10.88477,-7.75976 -2.35137,-4.16524 -3.52539,-10.37924 -3.52539,-18.64258 z"
           style="font-style:normal;font-variant:normal;font-weight:normal;font-stretch:normal;font-size:54.6045px;line-height:1.2;font-family:'Colonna MT';-inkscape-font-specification:'Colonna MT';text-align:end;text-anchor:end;fill:#3fbb56;fill-opacity:1;stroke:none;stroke-width:1.00001;stroke-miterlimit:4;stroke-dasharray:none"
           id="path1040" />
        <path
           transform="scale(0.26458)"
           d="m 720.76758,627.58008 h -8.26172 v 17.12109 c 0,11.28652 -0.37039,18.67649 -1.10938,22.16992 -0.67183,3.29189 -1.98144,6.21468 -3.92968,8.76758 -1.8811,2.48573 -4.63586,4.19814 -8.26368,5.13867 v 1.81446 c 7.59153,-0.80619 12.56272,-1.20899 14.91407,-1.20899 h 6.65039 z"
           style="font-style:normal;font-variant:normal;font-weight:normal;font-stretch:normal;font-size:54.6045px;line-height:1.2;font-family:'Colonna MT';-inkscape-font-specification:'Colonna MT';text-align:end;text-anchor:end;fill:#3fbb56;fill-opacity:1;stroke:none;stroke-width:1.00001;stroke-miterlimit:4;stroke-dasharray:none"
           id="path1042" />
        <path
           transform="scale(0.26458)"
           d="m 782.43945,627.58008 h -54.41601 v 53.80273 h 40.30859 0.002 c 6.04634,0 12.89794,0.4028 20.55664,1.20899 0.80616,-3.82937 2.11577,-8.36336 3.92969,-13.60352 1.47799,-4.03089 2.58717,-7.59128 3.32617,-10.68164 h -2.01562 c -4.29962,6.71815 -8.66561,11.04978 -13.09961,12.99805 -4.23244,1.88109 -10.51519,2.82226 -18.8457,2.82226 h -15.31641 c -3.22473,0 -6.24868,-0.20236 -9.07031,-0.60547 -0.94054,-6.38224 -1.41016,-13.80464 -1.41016,-22.26953 V 629.2832 h 25.29297 c 6.44944,0 11.18583,1.10918 14.20898,3.32618 2.95601,2.21699 4.73717,6.28139 5.3418,12.19335 h 2.2168 c -0.2016,-3.96371 -0.36961,-6.61732 -0.50391,-7.96093 -0.33677,-3.81662 -0.45044,-6.66427 -0.50586,-9.26172 z"
           style="font-style:normal;font-variant:normal;font-weight:normal;font-stretch:normal;font-size:54.6045px;line-height:1.2;font-family:'Colonna MT';-inkscape-font-specification:'Colonna MT';text-align:end;text-anchor:end;fill:#3fbb56;fill-opacity:1;stroke:none;stroke-width:1.00001;stroke-miterlimit:4;stroke-dasharray:none"
           id="path1044" />
        <path
           transform="scale(0.26458)"
           d="m 846.73438,627.58008 h -8.00586 l 0.0449,23.26758 c 0,10.41315 -1.04238,17.66951 -3.125,21.76757 -2.08262,4.0981 -6.01143,6.8185 -11.78906,8.16211 v 1.81446 c 8.26333,-0.80619 14.44292,-1.20899 18.54101,-1.20899 3.62779,0 10.51377,0.4028 20.6582,1.20899 v -1.81446 c -5.64325,-1.20926 -9.77445,-3.79605 -12.39453,-7.75976 -2.62007,-3.96372 -3.92968,-11.05014 -3.92968,-21.26172 z"
           style="font-style:normal;font-variant:normal;font-weight:normal;font-stretch:normal;font-size:54.6045px;line-height:1.2;font-family:'Colonna MT';-inkscape-font-specification:'Colonna MT';text-align:end;text-anchor:end;fill:#3fbb56;fill-opacity:1;stroke:none;stroke-width:1.00001;stroke-miterlimit:4;stroke-dasharray:none"
           id="path1046" />
        <path
           transform="scale(0.26458)"
           d="m 885.32031,627.58008 h -11.93164 l 64.64453,55.01172 h 2.01563 v -8.26368 z"
           style="font-style:normal;font-variant:normal;font-weight:normal;font-stretch:normal;font-size:54.6045px;line-height:1.2;font-family:'Colonna MT';-inkscape-font-specification:'Colonna MT';text-align:end;text-anchor:end;fill:#3fbb56;fill-opacity:1;stroke:none;stroke-width:1.00001;stroke-miterlimit:4;stroke-dasharray:none"
           id="path1048" />
        <path
           transform="scale(0.26458)"
           d="m 940.04883,627.58008 h -8.0625 v 19.74219 l -23.1875,-19.74219 h -11.99024 l 43.24024,36.87304 z"
           style="font-style:normal;font-variant:normal;font-weight:normal;font-stretch:normal;font-size:54.6045px;line-height:1.2;font-family:'Colonna MT';-inkscape-font-specification:'Colonna MT';text-align:end;text-anchor:end;fill:#3fbb56;fill-opacity:1;stroke:none;stroke-width:1.00001;stroke-miterlimit:4;stroke-dasharray:none"
           id="path1050" />
        <path
           transform="scale(0.26458)"
           d="m 214.20508,627.58008 h -9.16211 l 1.48437,3.11328 h -30.43359 l 1.60742,-3.11328 h -8.29883 L 154.02539,657.5 c -6.04634,11.75677 -12.76628,19.51518 -20.15625,23.27734 v 1.81446 c 0.94054,0 2.85533,-0.16798 5.74414,-0.50391 4.23244,-0.47025 7.79479,-0.70508 10.6836,-0.70508 3.15753,0 6.71792,0.23483 10.68164,0.70508 2.82162,0.33593 4.80322,0.50391 5.94531,0.50391 v -1.81446 c -5.64326,-2.14979 -8.46485,-5.77701 -8.46485,-10.88281 0,-2.95598 0.70443,-5.84439 2.11524,-8.66601 0.94055,-1.881 1.44454,-2.8546 1.51172,-2.92188 l 0.5039,-1.31055 9.57422,-18.74414 h 37.99024 l 8.96875,18.74414 c 3.35908,6.9197 5.03906,12.09132 5.03906,15.51758 0,4.63552 -2.5524,7.39031 -7.6582,8.26367 v 1.81446 c 9.13669,-0.67189 16.9619,-1.07469 23.47851,-1.20899 z"
           style="font-style:normal;font-variant:normal;font-weight:normal;font-stretch:normal;font-size:54.6045px;line-height:1.2;font-family:'Colonna MT';-inkscape-font-specification:'Colonna MT';text-align:end;text-anchor:end;fill:#3fbb56;fill-opacity:1;stroke:none;stroke-width:1.00001;stroke-miterlimit:4;stroke-dasharray:none"
           id="path1052" />
      </g>
      <path
         id="path1056"
         style="font-style:normal;font-variant:normal;font-weight:normal;font-stretch:normal;font-size:54.6045px;line-height:1.2;font-family:'Colonna MT';-inkscape-font-specification:'Colonna MT';text-align:end;text-anchor:end;fill:#3fbb56;fill-opacity:1;stroke:none;stroke-width:0.264583;stroke-miterlimit:4;stroke-dasharray:none"
         d="m 38.636384,151.85807 v 0.48007 c 1.581966,0.0711 2.959883,0.47971 4.133028,1.22626 1.190917,0.74655 2.123831,1.80423 2.799278,3.1729 l -4.783112,9.30784 h 2.195705 l 3.760446,-7.28164 3.473647,7.28164 h 2.424111 l -6.643956,-13.8672 c -0.462147,0 -1.4577,-0.053 -2.986343,-0.15968 -1.457542,-0.10664 -2.604118,-0.16019 -3.43954,-0.16019 z" />
      <path
         id="path1058"
         style="fill:#3fbb56;fill-opacity:1;stroke:none;stroke-width:0.48238;stroke-linecap:butt;stroke-linejoin:miter;stroke-miterlimit:4;stroke-dasharray:none;stroke-opacity:1"
         d="m 402.02344,519.00781 c -27.00173,39.61059 -60.67578,47.86914 -60.67578,47.86914 0,0 25.00357,-1.34821 60.67578,-40.34961 35.67219,39.0014 60.67773,40.34961 60.67773,40.34961 0,0 -33.67599,-8.25855 -60.67773,-47.86914 z"
         transform="scale(0.26458)" />
      <g
         id="g1068"
         style="fill:#3fbb56;fill-opacity:1">
        <path
           d="m 106.14724,146.61347 h -2.22412 v 2.22413 h 2.22412 z"
           style="opacity:1;fill:#3fbb56;fill-opacity:1;stroke:none;stroke-width:0.13229;stroke-miterlimit:4;stroke-dasharray:none;stroke-opacity:1;paint-order:fill markers stroke"
           id="path1060" />
        <path
           d="m 106.58748,146.61347 v 2.22413 h 2.22464 v -2.22413 z"
           style="opacity:1;fill:#3fbb56;fill-opacity:1;stroke:none;stroke-width:0.13229;stroke-miterlimit:4;stroke-dasharray:none;stroke-opacity:1;paint-order:fill markers stroke"
           id="path1062" />
        <path
           d="m 106.14725,143.94859 h -2.22413 v 2.22464 h 2.22413 z"
           style="opacity:1;fill:#3fbb56;fill-opacity:1;stroke:none;stroke-width:0.13229;stroke-miterlimit:4;stroke-dasharray:none;stroke-opacity:1;paint-order:fill markers stroke"
           id="path1064" />
        <path
           d="m 106.58748,143.94859 v 2.22464 h 2.22464 v -2.22464 z"
           style="opacity:1;fill:#3fbb56;fill-opacity:1;stroke:none;stroke-width:0.13229;stroke-miterlimit:4;stroke-dasharray:none;stroke-opacity:1;paint-order:fill markers stroke"
           id="path1066" />
      </g>
      <path
         id="path1070"
         style="opacity:1;fill:#3fbb56;fill-opacity:1;stroke:none;stroke-width:0.13229;stroke-miterlimit:4;stroke-dasharray:none;stroke-opacity:1;paint-order:fill markers stroke"
         d="m 110.31873,138.8172 h 3.15933 v 6.57657 l -3.15933,-2.57905 z" />
    </g>
  </g>
</svg>
