<svg width="120" height="40" viewBox="0 0 120 40" fill="none" xmlns="http://www.w3.org/2000/svg">
<path fill-rule="evenodd" clip-rule="evenodd" d="M4.51494 0.0274612C3.42074 0.173506 2.38447 0.664265 1.5585 1.42762C1.05263 1.89517 0.508479 2.76794 0.261802 3.50753C-0.012068 4.32855 4.02376e-05 3.66237 9.15433e-05 17.9231C9.15433e-05 26.6206 0.0182532 31.3172 0.0531923 31.69C0.229273 33.5666 0.94232 35.2333 2.17648 36.653C4.01604 38.7691 6.37887 39.8831 9.08945 39.9122C9.8319 39.9201 9.90404 39.9126 10.0386 39.813C10.1313 39.7444 10.206 39.623 10.2442 39.4786C10.3225 39.1831 10.3377 17.8076 10.2604 16.7203C10.0821 14.2111 9.24568 12.3315 7.62129 10.7898C7.06232 10.2593 6.49411 9.8342 5.61242 9.28691C4.67373 8.70422 4.15775 8.20528 3.85684 7.58931C3.54018 6.94099 3.47102 6.60538 3.50191 5.866C3.53049 5.18099 3.63859 4.80012 3.95689 4.26239C4.16632 3.90857 4.65249 3.40202 5.00178 3.17367C5.21141 3.03662 5.29971 3.00905 5.48918 3.0215C5.7159 3.03637 5.72093 3.04059 5.73643 3.22722C5.74894 3.37866 5.70939 3.48381 5.54372 3.73948C5.22978 4.22386 5.11876 4.5588 5.0912 5.10399C5.07186 5.48682 5.08782 5.64315 5.17509 5.92706C5.58507 7.26029 6.77552 8.02534 8.08694 7.79827C9.5234 7.5496 10.4554 6.18489 10.2644 4.60993C9.99526 2.3901 8.44321 0.656188 6.25656 0.132558C5.75325 0.0120285 4.98013 -0.0346295 4.51494 0.0274612ZM17.0079 0.150717C16.5347 0.300773 16.2451 0.550835 16.0485 0.978988L15.9305 1.2362L15.9155 15.2542C15.9002 29.4712 15.9064 30.0408 16.0881 31.1241C16.4849 33.49 17.6483 35.5988 19.4456 37.2095C21.1787 38.7628 23.0305 39.6203 25.2937 39.9176C25.8005 39.9842 27.2697 39.9957 35.7088 39.9997C41.6874 40.0025 45.5952 39.9854 45.6907 39.9561C46.1227 39.8234 46.4783 39.5346 46.6787 39.1537L46.8165 38.8919V24.4624C46.8165 9.17857 46.8254 9.7788 46.5796 8.59244C46.0347 5.96163 44.6178 3.78146 42.3772 2.12605C40.8716 1.01366 39.1942 0.371661 37.171 0.133432C36.4494 0.0484495 17.2785 0.0649109 17.0079 0.150717ZM53.5888 0.150048C53.1141 0.302059 52.8258 0.551195 52.6295 0.978988L52.5114 1.2362L52.4959 15.2285C52.4802 29.3925 52.4876 30.0953 52.6647 31.088C53.2165 34.1817 54.8047 36.5731 57.4624 38.312C58.8049 39.1904 60.3934 39.7551 62.0542 39.9444C62.3533 39.9785 65.9831 39.9972 72.3519 39.9975L82.1879 39.9979L82.4806 39.8881C82.8553 39.7475 83.1768 39.4234 83.3037 39.0584C83.3936 38.8001 83.3974 38.1958 83.3974 24.308V9.82705L83.2771 9.13258C82.8579 6.71377 81.8633 4.81539 80.1267 3.11955C78.4929 1.52407 76.7027 0.621568 74.3287 0.196501C73.9006 0.119903 72.8813 0.110335 63.8243 0.0979886C55.7961 0.0870828 53.7531 0.0974738 53.5888 0.150048ZM90.2331 0.134101C89.7853 0.241358 89.4407 0.518169 89.2133 0.953267L89.0923 1.18476L89.077 15.3056C89.0661 25.3155 89.0782 29.6212 89.1184 30.0953C89.2899 32.1141 90.0416 34.1602 91.1618 35.6566C91.5747 36.2083 92.3353 37.01 92.8701 37.4572C94.157 38.5334 95.902 39.4108 97.4102 39.74C98.615 40.003 98.389 39.9979 108.898 39.9979C120.077 39.9979 119.044 40.0425 119.547 39.5382C120.055 39.0288 120.008 40.6641 119.99 24.2275C119.976 10.5679 119.97 9.74598 119.882 9.23546C119.456 6.74988 118.468 4.84636 116.715 3.1302C115.081 1.5304 113.282 0.621311 110.91 0.196553C110.481 0.119852 109.469 0.110489 100.431 0.0997374C94.6377 0.0928442 90.345 0.107299 90.2331 0.134101ZM31.5017 10.4695C32.2542 10.5323 32.7732 10.6667 33.3849 10.9572C34.7645 11.6125 35.8303 12.8294 36.2699 14.2511C36.5274 15.0838 36.5291 15.1332 36.5294 21.9783C36.5297 28.251 36.5278 28.3731 36.4267 28.6442C36.2929 29.0027 36.044 29.2894 35.7016 29.4796L35.4266 29.6323H32.9383C30.5333 29.6323 30.4359 29.6285 30.0283 29.5187C29.0842 29.2644 28.309 28.8274 27.6782 28.1938C27.062 27.5749 26.6206 26.7968 26.3569 25.8648L26.244 25.4655L26.2291 18.629C26.2129 11.1133 26.198 11.4968 26.5233 11.0465C26.7129 10.7841 27.0156 10.5771 27.3359 10.4906C27.6322 10.4107 30.6151 10.3955 31.5017 10.4695ZM68.0827 10.4697C69.3778 10.5781 70.4155 11.0351 71.4039 11.9321C72.0181 12.4894 72.6653 13.5661 72.8997 14.4204C73.1065 15.1739 73.116 15.5378 73.1002 22.1475L73.085 28.5006L72.9669 28.7578C72.8175 29.0832 72.5909 29.321 72.2641 29.4954L72.0076 29.6323L69.7758 29.649C67.3668 29.667 66.9093 29.637 66.2381 29.4173C65.3499 29.1266 64.4743 28.5189 63.8978 27.7932C63.5017 27.2946 63.1117 26.5212 62.9444 25.9027L62.8261 25.4655L62.8103 18.6301C62.7931 11.1129 62.7781 11.4979 63.1043 11.0465C63.2938 10.7841 63.5965 10.5771 63.9168 10.4906C64.2134 10.4106 67.1974 10.3955 68.0827 10.4697ZM104.664 10.4695C105.455 10.5355 105.963 10.6738 106.639 11.0066C108.137 11.7443 109.222 13.1444 109.573 14.7912C109.66 15.2007 109.666 15.6488 109.666 21.8388C109.666 28.217 109.662 28.4581 109.568 28.7033C109.451 29.0076 109.133 29.3679 108.847 29.5198C108.655 29.6219 108.542 29.6321 107.332 29.6569C105.346 29.6976 103.608 29.6359 103.082 29.5061C101.175 29.0353 99.6695 27.3162 99.4316 25.3382C99.3984 25.0625 99.3791 22.4902 99.3791 18.3386C99.3791 11.1367 99.3642 11.4908 99.686 11.0454C99.8748 10.7841 100.178 10.577 100.498 10.4906C100.794 10.4107 103.777 10.3955 104.664 10.4695Z" fill="white"/>
</svg>
